<svg height="9" viewBox="0 0 7 9" width="7" xmlns="http://www.w3.org/2000/svg"><path d="m15.7773913 38.475c.2310261 0 .4226087.1967143.4226087.4339286s-.1915826.4339285-.4226087.4339285h-1.0818783l-.360626 2.3142858h1.1607652c.2310261 0 .4226087.1967142.4226087.4339285s-.1915826.4339286-.4226087.4339286h-1.296l-.2592 1.6547143c-.0338087.2140714-.208487.3702857-.4169739.3702857-.2422957 0-.4226087-.1967143-.4226087-.4281429 0-.0231428 0-.0462857.0056347-.0694285l.2366609-1.5274286h-1.3974261l-.2592 1.6547143c-.0338087.2140714-.2084869.3702857-.4169739.3702857-.2422956 0-.4226087-.1967143-.4226087-.4281429 0-.0231428 0-.0462857.0056348-.0694285l.2366609-1.5274286h-.9466435c-.23102609 0-.4226087-.1967143-.4226087-.4339286s.19158261-.4339285.4226087-.4339285h1.0818783l.360626-2.3142858h-1.1607652c-.2310261 0-.4226087-.1967142-.4226087-.4339285s.1915826-.4339286.4226087-.4339286h1.296l.2592-1.6547143c.0338087-.2140714.208487-.3702857.4169739-.3702857.2366609 0 .4226087.1967143.4226087.4339286 0 .0231428 0 .0405-.0056347.0636428l-.2366609 1.5274286h1.3974261l.2592-1.6547143c.0338087-.2140714.2084869-.3702857.4169739-.3702857.2366609 0 .4226087.1967143.4226087.4339286 0 .0231428 0 .0405-.0056348.0636428l-.2366609 1.5274286zm-2.2989913 3.1821429.3606261-2.3142858h-1.3974261l-.3606261 2.3142858z" fill="#717274" fill-rule="evenodd" transform="translate(-9.32 -36.23)"/></svg>