<svg height="11" viewBox="0 0 10 11" width="10" xmlns="http://www.w3.org/2000/svg"><path d="m567.8286 19.44 3.8232 3.8232c.1134.1134.1782.2592.1782.4293 0 .3321-.2754.6075-.6075.6075-.162 0-.3159-.0729-.4293-.1782l-3.8232-3.8232-3.8232 3.8232c-.1134.1053-.2592.1782-.4293.1782-.3321 0-.6075-.2754-.6075-.6075 0-.1701.0729-.3159.1782-.4293l3.8232-3.8232-3.8232-3.8232c-.1053-.1134-.1782-.2673-.1782-.4293 0-.3321.2754-.6075.6075-.6075.1701 0 .3159.0648.4293.1782l3.8232 3.8232 3.8232-3.8232c.1134-.1134.2673-.1782.4293-.1782.3321 0 .6075.2754.6075.6075 0 .162-.0648.3159-.1782.4293z" fill="#2c2d30" fill-opacity=".6" fill-rule="evenodd" transform="translate(-562 -14)"/></svg>