<svg height="17" viewBox="0 0 16 17" width="16" xmlns="http://www.w3.org/2000/svg"><path d="m183.2844 57.51c1.0044 0 1.8225.8181 1.8225 1.8225v2.025c0 1.0044-.8181 1.8225-1.8225 1.8225s-1.8225-.8181-1.8225-1.8225v-2.025c0-1.0044.8181-1.8225 1.8225-1.8225zm4.455 0c1.0044 0 1.8225.8181 1.8225 1.8225v2.025c0 1.0044-.8181 1.8225-1.8225 1.8225s-1.8225-.8181-1.8225-1.8225v-2.025c0-1.0044.8181-1.8225 1.8225-1.8225zm-4.455 1.215c-.3402 0-.6075.2754-.6075.6075v2.025c0 .3321.2673.6075.6075.6075.3321 0 .6075-.2754.6075-.6075v-2.025c0-.3321-.2754-.6075-.6075-.6075zm4.455 0c-.3402 0-.6075.2754-.6075.6075v2.025c0 .3321.2673.6075.6075.6075.3321 0 .6075-.2754.6075-.6075v-2.025c0-.3321-.2754-.6075-.6075-.6075zm3.0375 1.215c1.1178 0 2.0331.9072 2.0331 2.0331v9.7038c0 1.1178-.9153 2.0331-2.0331 2.0331h-10.5219c-1.1178 0-2.025-.9153-2.025-2.0331v-9.7038c0-1.1259.9072-2.0331 2.025-2.0331.3969 0 .648.2106.648.6075s-.2511.6075-.648.6075c-.4455 0-.81.3645-.81.8181v9.7038c0 .4536.3645.8181.81.8181h10.5219c.4536 0 .8181-.3645.8181-.8181v-9.7038c0-.4536-.3645-.8181-.8181-.8181-.3888 0-.6399-.2106-.6399-.6075s.2511-.6075.6399-.6075zm-5.2569 4.86c.4455 0 .81.3564.81.81 0 .4455-.3645.81-.81.81-.4536 0-.81-.3564-.81-.81 0-.4455.3564-.81.81-.81zm3.24 0c.4455 0 .81.3564.81.81 0 .4455-.3645.81-.81.81-.4536 0-.81-.3564-.81-.81 0-.4455.3564-.81.81-.81zm-6.48 2.43c.4455 0 .81.3564.81.81 0 .4455-.3645.81-.81.81-.4536 0-.81-.3564-.81-.81 0-.4455.3564-.81.81-.81zm3.24 0c.4455 0 .81.3564.81.81 0 .4455-.3645.81-.81.81-.4536 0-.81-.3564-.81-.81 0-.4455.3564-.81.81-.81zm3.24 0c.4455 0 .81.3564.81.81 0 .4455-.3645.81-.81.81-.4536 0-.81-.3564-.81-.81 0-.4455.3564-.81.81-.81zm-6.48 2.43c.4455 0 .81.3564.81.81 0 .4455-.3645.81-.81.81-.4536 0-.81-.3564-.81-.81 0-.4455.3564-.81.81-.81zm3.24 0c.4455 0 .81.3564.81.81 0 .4455-.3645.81-.81.81-.4536 0-.81-.3564-.81-.81 0-.4455.3564-.81.81-.81zm3.24 0c.4455 0 .81.3564.81.81 0 .4455-.3645.81-.81.81-.4536 0-.81-.3564-.81-.81 0-.4455.3564-.81.81-.81z" fill="#717274" fill-rule="evenodd" transform="translate(-177.68 -57.3)"/></svg>