<svg height="4" viewBox="0 0 6 4" width="6" xmlns="http://www.w3.org/2000/svg"><path d="m311.710812 5.4432 2.09647 2.2275c.114353.1215.167718.2754.167718.4293s-.060988.3078-.167718.4293l-2.09647 2.2275c-.10673.1215-.2592.1782-.404047.1782s-.289694-.0567-.404047-.1782c-.10673-.1134-.167718-.2754-.167718-.4293s.053365-.3078.167718-.4293l1.692423-1.7982-1.692423-1.7982c-.10673-.1134-.167718-.2754-.167718-.4293s.053365-.3159.167718-.4293.2592-.1782.404047-.1782.297317.0648.404047.1782z" fill="#717274" fill-rule="evenodd" transform="matrix(0 1 -1 0 11.135 -310.485)"/></svg>