<svg height="13" viewBox="0 0 13 13" width="13" xmlns="http://www.w3.org/2000/svg"><path d="m103.724549 8.34306294c-.055147.14170757-.063025.27554251-.015756.41725009l.74842 2.29881177c.189075.5825756-.275734 1.0470616-.858714.8581181l-2.300409-.7479011c-.141806-.0472358-.275734-.0472358-.41754.0157453-.677517.2912878-1.4180601.4566133-2.2058713.4566133-3.0488295 0-5.5146787-2.46413729-5.5146787-5.51085019s2.4658492-5.51085021 5.5146787-5.51085021c3.0488293 0 5.5146783 2.46413731 5.5146783 5.51085021 0 .78726432-.16544 1.53516542-.464808 2.21221273zm-3.119733 1.66900036c.196953-.11021702.41754-.13383495.646005-.06298116l1.851357.60619356-.606615-1.85007118c-.070903-.22830665-.03939-.44086801.063025-.64555674.283612-.58257559.449053-1.23600497.449053-1.92879757 0-2.39328352-1.938016-4.32995374-4.3329623-4.32995374-2.3949462 0-4.3329618 1.93667022-4.3329618 4.32995374s1.9380156 4.32995369 4.3329618 4.32995369c.6932739 0 1.3471573-.1653255 1.9301373-.4487406zm-3.6002971-4.27484525c-.4332962 0-.6932739-.22043401-.6932739-.59044823 0-.37001423.2599777-.59044824.6932739-.59044824h3.3481981c.433296 0 .685395.22043401.685395.59044824 0 .37001422-.252099.59044823-.685395.59044823zm0 2.36179295c-.4332962 0-.6932739-.22043401-.6932739-.59044824s.2599777-.59044823.6932739-.59044823h2.5603865c.4332962 0 .6853956.220434.6853956.59044823s-.2520994.59044824-.6853956.59044824z" fill="#717274" fill-rule="evenodd" transform="translate(-92.39 .32)"/></svg>