<svg height="41" viewBox="0 0 40 41" width="40" xmlns="http://www.w3.org/2000/svg"><g fill="none" fill-rule="evenodd"><g fill="#ef3229" stroke="#ef3229" stroke-width=".5" transform="translate(1 1)"><path d="m20.4765712.619138c-.4033819-.39839762-.9412422-.619138-1.5122461-.619138h-16.87753904c-1.15076974 0-2.08678606.92444637-2.08678606 2.06099706v34.87800594c0 1.1365503.93601632 2.060997 2.08678606 2.060997h27.82643234c1.1507698 0 2.0867816-.9244463 2.0867816-2.060997l-.0017435-23.5729867c0-.8830322-.3475018-1.7143187-.9778994-2.3369446zm10.7901003 36.3217635c0 .7381708-.6077058 1.3366017-1.3533235 1.3366017h-27.82643677c-.74566231 0-1.35332346-.600197-1.35332346-1.3366017l-.00174792-34.87977199c0-.73817073.60770585-1.33660162 1.35332346-1.33660162h16.87753909c.3702025 0 .7334134.14832291.9953787.40702484l10.542096 10.41006607c.492459.4863742.7648404 1.1348288.7648404 1.8264196z"/><path d="m19.8928163 24.2440936c-1.2955106-1.3485068-2.603521-3.1605953-3.5462082-4.9092814.6076555-2.203423 1.1476112-4.9656891.3973894-5.9440255-.2779979-.3596018-.7092508-.4794661-1.2099735-.3243447-.5399558.1692233-.9373497.5253143-1.1476113 1.0312243-.6148178 1.4736418.4312484 3.9115407 1.1618902 5.31993-.67718 2.3832059-1.7054043 5.0748946-2.7710368 7.2553935-2.0742859.9712516-4.5299076 2.4008502-4.75996817 3.8075247-.07128091.442449.07841129.8513963.43659501 1.1845632.23700846.2221068.51322256.3349223.81618354.3349223 1.12087802 0 2.48769242-1.6041017 4.06298912-4.7680363 1.9780282-.9060442 4.3142629-1.7098775 6.3174275-2.176979 1.0032703.9924158 2.3879219 2.102972 3.5711623 2.102972.5791431 0 1.3471978-.2626481 1.7107418-1.5106904.1603809-.5499984.0053467-.9148438-.1532551-1.1228757-.5863054-.7667847-2.2703141-.8443567-4.8863349-.2802745zm-10.62256646 7.0175783c-.06949718 0-.17642083-.014102-.30294274-.1322063-.17819999-.165699-.24235509-.3296335-.21027982-.5288342.11761236-.7192216 1.41316402-1.7680452 3.45533362-2.8221486-1.373931 2.5471495-2.40571366 3.4832026-2.94211106 3.4832026zm5.80602976-16.8781084c.1283057-.3067184.3510579-.50591.6825176-.6081661.0730646-.022915.1372152-.0334926.1924607-.0334926.0873209 0 .1443456.0282039.1978028.100478.3065102.3983788.3617512 1.7821246-.3100731 4.484418-.8090212-1.7539207-1.0870282-3.1641151-.7627171-3.9432644zm-1.2527648 11.8244231c.8411375-1.8297328 1.6376589-3.9203402 2.2310811-5.8682135.8535917 1.4595625 1.9210034 2.9226447 3.0009149 4.1001231-1.6786712.419534-3.5426499 1.0505836-5.2321329 1.7680904zm10.3889931-.7632648c-.2548275.8743205-.6878551.9748165-.990816.9748165-.6557844 0-1.6180881-.5587979-2.6926165-1.5494538.8678251-.165699 1.6305423-.2520706 2.2364186-.2520706 1.035341 0 1.3347436.2485462 1.4149432.3543131.0302961.0405414.122959.1604101.0320753.4724264z"/></g></g></svg>