<svg class="c-tab__mobile_heading_image hide for-x-small--show for-small--show" width="48" height="48" viewBox="0 0 32 32" fill="none" xmlns="http://www.w3.org/2000/svg"><path d="M27.9999 6.04802H23.8479C23.8864 5.40981 23.8078 4.76993 23.6159 4.16002C23.3444 3.29866 22.8462 2.52623 22.1733 1.92378C21.5005 1.32133 20.6779 0.911064 19.7919 0.736022C19.0513 0.584095 18.2861 0.598879 17.5519 0.779303C16.8176 0.959727 16.1327 1.30127 15.5468 1.77917C14.961 2.25707 14.4888 2.85935 14.1645 3.54235C13.8402 4.22535 13.6719 4.97195 13.6719 5.72802C13.6719 5.83202 13.6719 5.94402 13.6719 6.04802H9.52792C8.62684 6.05014 7.76326 6.40903 7.12609 7.04619C6.48893 7.68336 6.13003 8.54694 6.12792 9.44802V13.152C5.42691 13.0963 4.72196 13.1863 4.05743 13.4164C3.3929 13.6464 2.78317 14.0115 2.2666 14.4887C1.75004 14.9658 1.33782 15.5447 1.05589 16.189C0.773962 16.8332 0.628418 17.5288 0.628418 18.232C0.628418 18.9352 0.773962 19.6309 1.05589 20.2751C1.33782 20.9193 1.75004 21.4982 2.2666 21.9754C2.78317 22.4525 3.3929 22.8176 4.05743 23.0477C4.72196 23.2777 5.42691 23.3677 6.12792 23.312V27.92C6.13003 28.8211 6.48893 29.6847 7.12609 30.3219C7.76326 30.959 8.62684 31.3179 9.52792 31.32H27.9999C28.901 31.3179 29.7646 30.959 30.4017 30.3219C31.0389 29.6847 31.3978 28.8211 31.3999 27.92V9.44802C31.3978 8.54694 31.0389 7.68336 30.4017 7.04619C29.7646 6.40903 28.901 6.05014 27.9999 6.04802V6.04802ZM29.3999 27.92C29.3978 28.2907 29.2496 28.6456 28.9875 28.9077C28.7255 29.1697 28.3706 29.3179 27.9999 29.32H9.52792C9.15727 29.3179 8.80239 29.1697 8.54029 28.9077C8.2782 28.6456 8.13002 28.2907 8.12792 27.92V22.064C8.12362 21.9062 8.08228 21.7515 8.00724 21.6126C7.9322 21.4736 7.82556 21.3542 7.69592 21.264C7.52796 21.1509 7.33042 21.0897 7.12792 21.088C7.00793 21.0905 6.8891 21.1121 6.77592 21.152C6.2554 21.3469 5.69202 21.3981 5.14491 21.3001C4.5978 21.2022 4.08714 20.9588 3.66653 20.5955C3.24592 20.2322 2.93087 19.7623 2.75446 19.2352C2.57805 18.7082 2.54677 18.1433 2.66392 17.6C2.75654 17.1646 2.94197 16.7543 3.20758 16.397C3.47318 16.0397 3.8127 15.744 4.20299 15.5298C4.59329 15.3157 5.02517 15.1882 5.46919 15.1562C5.9132 15.1241 6.35891 15.1882 6.77592 15.344C6.9279 15.3992 7.09092 15.417 7.25123 15.396C7.41154 15.3749 7.56443 15.3156 7.69699 15.223C7.82956 15.1305 7.93792 15.0074 8.01292 14.8641C8.08792 14.7209 8.12736 14.5617 8.12792 14.4V9.44802C8.12792 9.07672 8.27542 8.72062 8.53797 8.45807C8.80052 8.19552 9.15662 8.04802 9.52792 8.04802H14.8879C15.047 8.04927 15.2041 8.01223 15.3459 7.94002C15.4877 7.8678 15.6101 7.76254 15.7026 7.6331C15.7952 7.50367 15.8553 7.35387 15.8778 7.19635C15.9003 7.03882 15.8845 6.8782 15.8319 6.72802C15.7275 6.40489 15.6735 6.0676 15.6719 5.72802C15.6711 5.27805 15.7683 4.83329 15.9568 4.42473C16.1454 4.01616 16.4207 3.65361 16.7637 3.36231C17.1067 3.07102 17.509 2.85798 17.9427 2.73805C18.3764 2.61811 18.831 2.59415 19.2749 2.66784C19.7188 2.74153 20.1413 2.91109 20.513 3.16472C20.8847 3.41836 21.1966 3.74996 21.4271 4.13645C21.6575 4.52293 21.801 4.955 21.8474 5.40258C21.8938 5.85015 21.8421 6.30246 21.6959 6.72802C21.6433 6.8782 21.6276 7.03882 21.6501 7.19635C21.6726 7.35387 21.7327 7.50367 21.8252 7.6331C21.9178 7.76254 22.0401 7.8678 22.1819 7.94002C22.3237 8.01223 22.4808 8.04927 22.6399 8.04802H27.9999C28.3712 8.04802 28.7273 8.19552 28.9899 8.45807C29.2524 8.72062 29.3999 9.07672 29.3999 9.44802V27.92Z" fill="#1D1C1D"/><path d="M23.9999 17.2081H19.9999V13.6001C19.9999 13.3349 19.8945 13.0805 19.707 12.893C19.5195 12.7055 19.2651 12.6001 18.9999 12.6001C18.7347 12.6001 18.4803 12.7055 18.2928 12.893C18.1053 13.0805 17.9999 13.3349 17.9999 13.6001V17.2081H14.3999C14.1512 17.2304 13.9198 17.345 13.7512 17.5293C13.5827 17.7136 13.4893 17.9543 13.4893 18.2041C13.4893 18.4538 13.5827 18.6946 13.7512 18.8789C13.9198 19.0632 14.1512 19.1778 14.3999 19.2001H18.0079V23.2001C18.0302 23.4488 18.1448 23.6802 18.3291 23.8488C18.5134 24.0173 18.7542 24.1107 19.0039 24.1107C19.2536 24.1107 19.4944 24.0173 19.6787 23.8488C19.863 23.6802 19.9776 23.4488 19.9999 23.2001V19.2001H23.9999C24.2651 19.2001 24.5195 19.0947 24.707 18.9072C24.8945 18.7197 24.9999 18.4653 24.9999 18.2001C24.9999 17.9349 24.8945 17.6805 24.707 17.493C24.5195 17.3055 24.2651 17.2001 23.9999 17.2001V17.2081Z" fill="#1D1C1D"/></svg>