<svg class="c-tab__mobile_heading_image hide for-x-small--show for-small--show" width="48" height="48" fill="none" viewBox="0 0 32 32" xmlns="http://www.w3.org/2000/svg"><path d="M26.464 4.7999C25.2618 3.41768 23.7769 2.30959 22.1097 1.55052C20.4425 0.791443 18.6318 0.399068 16.8 0.399904C16.2355 0.401368 15.6717 0.438777 15.112 0.511904C12.9371 0.790744 10.8702 1.62362 9.10968 2.93069C7.34912 4.23775 5.95385 5.97518 5.05765 7.97638C4.16145 9.97758 3.79436 12.1755 3.99158 14.3593C4.1888 16.5431 4.94372 18.6396 6.18396 20.4479L2.34396 25.3839C1.89994 25.9526 1.62476 26.6348 1.54985 27.3524C1.47494 28.07 1.60331 28.7943 1.92031 29.4425C2.2373 30.0906 2.73016 30.6366 3.34261 31.0181C3.95505 31.3996 4.66242 31.6012 5.38396 31.5999C5.96677 31.6007 6.54206 31.4685 7.06608 31.2134C7.5901 30.9583 8.04903 30.5871 8.40796 30.1279L12.24 25.2479C14.3304 26.0406 16.5906 26.2776 18.8 25.9359C21.0749 25.5902 23.2145 24.6377 24.9938 23.1786C26.773 21.7195 28.126 19.8077 28.9104 17.6445C29.6948 15.4813 29.8816 13.1466 29.451 10.8862C29.0205 8.62586 27.9886 6.52332 26.464 4.7999V4.7999ZM27.568 14.7039C27.2593 17.0227 26.2105 19.18 24.5774 20.8549C22.9443 22.5297 20.8142 23.6328 18.504 23.9999C17.9454 24.0854 17.3811 24.1282 16.816 24.1279C15.2404 24.1311 13.6834 23.7869 12.256 23.1199C12.1354 23.0643 12.0047 23.0344 11.872 23.0319C11.7443 23.0318 11.6183 23.0606 11.5034 23.116C11.3884 23.1714 11.2874 23.252 11.208 23.3519L6.83996 28.9519C6.66063 29.1613 6.43691 29.328 6.18505 29.4401C5.9332 29.5522 5.65954 29.6068 5.38396 29.5999C5.03799 29.5996 4.69906 29.5022 4.40572 29.3188C4.11239 29.1353 3.87644 28.8732 3.72473 28.5623C3.57301 28.2514 3.51163 27.9041 3.54756 27.56C3.58349 27.2159 3.71529 26.8888 3.92796 26.6159L8.30396 21.0159C8.42073 20.8647 8.48407 20.679 8.48407 20.4879C8.48407 20.2968 8.42073 20.1111 8.30396 19.9599C7.20178 18.5521 6.46493 16.8935 6.15907 15.1319C5.85321 13.3703 5.98783 11.5605 6.55094 9.8635C7.11405 8.16655 8.08816 6.63523 9.38649 5.40598C10.6848 4.17672 12.2671 3.28769 13.9922 2.8181C15.7174 2.34851 17.5319 2.31294 19.2742 2.71455C21.0164 3.11616 22.6323 3.94249 23.9778 5.11992C25.3233 6.29735 26.3567 7.78931 26.9859 9.46288C27.6151 11.1365 27.8205 12.9397 27.584 14.7119L27.568 14.7039Z" fill="#1D1C1D"/><path d="M16.7999 5.8479C14.9422 5.8515 13.1535 6.55221 11.7876 7.81141C10.4218 9.07061 9.57825 10.7966 9.42394 12.6479H8.22394C8.15678 12.6469 8.09087 12.6661 8.03471 12.7029C7.97856 12.7398 7.93474 12.7926 7.9089 12.8546C7.88307 12.9166 7.87641 12.985 7.88979 13.0508C7.90316 13.1166 7.93596 13.1769 7.98394 13.2239L10.1119 15.3599C10.1762 15.4225 10.2623 15.4575 10.3519 15.4575C10.4416 15.4575 10.5277 15.4225 10.5919 15.3599L12.7279 13.2239C12.7759 13.1769 12.8087 13.1166 12.8221 13.0508C12.8355 12.985 12.8288 12.9166 12.803 12.8546C12.7771 12.7926 12.7333 12.7398 12.6772 12.7029C12.621 12.6661 12.5551 12.6469 12.4879 12.6479H11.3919C11.5371 11.3904 12.1199 10.2241 13.0385 9.35321C13.9571 8.4823 15.1527 7.96231 16.4161 7.88431C17.6795 7.80631 18.9301 8.17528 19.9488 8.92659C20.9675 9.6779 21.6894 10.7637 21.9881 11.9937C22.2868 13.2238 22.1432 14.5197 21.5825 15.6545C21.0218 16.7894 20.0797 17.6908 18.9213 18.2009C17.7628 18.711 16.4618 18.7972 15.2461 18.4446C14.0304 18.0919 12.9776 17.3228 12.2719 16.2719C12.124 16.0529 11.8954 15.9013 11.6361 15.8503C11.3767 15.7994 11.1078 15.8531 10.8879 15.9999C10.6684 16.1493 10.5166 16.3793 10.4657 16.64C10.4148 16.9006 10.4688 17.1708 10.6159 17.3919C11.329 18.4515 12.3039 19.3087 13.446 19.8803C14.5881 20.452 15.8586 20.7186 17.1342 20.6544C18.4097 20.5902 19.647 20.1973 20.7259 19.5139C21.8048 18.8305 22.6887 17.8797 23.2918 16.7539C23.8949 15.6281 24.1967 14.3655 24.1679 13.0886C24.1391 11.8118 23.7806 10.5641 23.1273 9.46663C22.4741 8.36918 21.5482 7.45926 20.4395 6.8252C19.3309 6.19114 18.0771 5.85448 16.7999 5.8479V5.8479Z" fill="#1D1C1D"/></svg>