<svg height="12" viewBox="0 0 12 12" width="12" xmlns="http://www.w3.org/2000/svg"><path d="m33.0192679 24.0768679c.1271547.1271547.1907321.278151.1907321.4291472s-.0556302.2940453-.1827849.4212c-.1192076.1192075-.2702038.1827849-.4212.1827849s-.3019925-.0635774-.4291472-.1907321l-2.1457358-2.1377887c-.7708755.5880906-1.732483.9377661-2.7815095.9377661-2.5192528 0-4.5696226-2.0503698-4.5696226-4.5696227 0-2.5192528 2.0503698-4.5696226 4.5696226-4.5696226 2.5272 0 4.5696227 2.0424226 4.5696227 4.5696226 0 1.0490265-.3496755 2.0185812-.9457132 2.7894566zm-9.1471924-4.9272453c0 1.8675849 1.5179094 3.3775472 3.3775471 3.3775472 1.8675849 0 3.3775472-1.5099623 3.3775472-3.3775472s-1.5099623-3.3775471-3.3775472-3.3775471c-1.8596377 0-3.3775471 1.5099622-3.3775471 3.3775471z" fill="#717274" fill-rule="evenodd" transform="translate(-22 -14)"/></svg>