<svg width="21" height="20" viewBox="0 0 21 20" fill="none" xmlns="http://www.w3.org/2000/svg"><path d="M6.43 19c.47 0 1.04-.16 1.62-.72l8.99-8.5c.66-.63 1.01-1.26 1.01-1.79 0-.87-.83-1.49-2.29-1.49h-2.11L17.22 1H8.18L3.91 9.44c-.18.35-.26.7-.26 1.03 0 1.11.88 2.03 2.16 2.03H7.4l-2.08 3.83c-.18.44-.27.84-.27 1.18 0 .93.59 1.49 1.38 1.49zm.24-1.61c-.14 0-.07-.24.03-.47L9.65 11H5.81c-.41 0-.65-.22-.65-.53 0-.11.02-.23.09-.36L9.11 2.5h5.32L11.01 8h4.75c.34 0 .51.11.51.27 0 .11-.08.24-.24.4l-8.98 8.5c-.16.16-.3.22-.38.22z" fill="#1D1C1D" fill-opacity=".7"/></svg>